HIERARCHY
ROOT hip
{
  OFFSET 0 0 0
  CHANNELS 6 Xposition Yposition Zposition Zrotation Yrotation Xrotation
  JOINT abdomen
  {
    OFFSET 0 20.6881 -0.73152
    CHANNELS 3 Zrotation Xrotation Yrotation
    JOINT chest
    {
      OFFSET 0 11.7043 -0.48768
      CHANNELS 3 Zrotation Xrotation Yrotation
      JOINT neck
      {
        OFFSET 0 22.1894 -2.19456
        CHANNELS 3 Zrotation Xrotation Yrotation
        JOINT head
        {
          OFFSET -0.24384 7.07133 1.2192
          CHANNELS 3 Zrotation Xrotation Yrotation
          JOINT leftEye
          {
            OFFSET 4.14528 8.04674 8.04672
            CHANNELS 3 Zrotation Xrotation Yrotation
            End Site
            {
              OFFSET 1 0 0
            }
          }
          JOINT rightEye
          {
            OFFSET -3.6576 8.04674 8.04672
            CHANNELS 3 Zrotation Xrotation Yrotation
            End Site
            {
              OFFSET 1 0 0
            }
          }
        }
      }
      JOINT rCollar
      {
        OFFSET -2.68224 19.2634 -4.8768
        CHANNELS 3 Zrotation Xrotation Yrotation
        JOINT rShldr
        {
          OFFSET -8.77824 -1.95073 1.46304
          CHANNELS 3 Zrotation Xrotation Yrotation
          JOINT rForeArm
          {
            OFFSET -28.1742 -1.7115 0.48768
            CHANNELS 3 Zrotation Xrotation Yrotation
            JOINT rHand
            {
              OFFSET -22.5879 0.773209 7.07136
              CHANNELS 3 Zrotation Xrotation Yrotation
              JOINT rThumb1
              {
                OFFSET -1.2192 -0.487915 3.41376
                CHANNELS 3 Zrotation Xrotation Yrotation
                JOINT rThumb2
                {
                  OFFSET -3.37035 -0.52449 3.41376
                  CHANNELS 3 Zrotation Xrotation Yrotation
                  End Site
                  {
                    OFFSET -1.78271 -1.18214 1.43049
                  }
                }
              }
              JOINT rIndex1
              {
                OFFSET -7.75947 0.938293 5.60832
                CHANNELS 3 Zrotation Xrotation Yrotation
                JOINT rIndex2
                {
                  OFFSET -2.54057 -0.884171 1.56538
                  CHANNELS 3 Zrotation Xrotation Yrotation
                  End Site
                  {
                    OFFSET -1.62519 -0.234802 1.16502
                  }
                }
              }
              JOINT rMid1
              {
                OFFSET -8.24714 1.18213 3.41376
                CHANNELS 3 Zrotation Xrotation Yrotation
                JOINT rMid2
                {
                  OFFSET -3.10165 -0.590103 1.0647
                  CHANNELS 3 Zrotation Xrotation Yrotation
                  End Site
                  {
                    OFFSET -2.48547 -0.328903 0.83742
                  }
                }
              }
              JOINT rRing1
              {
                OFFSET -8.82822 0.546677 1.51678
                CHANNELS 3 Zrotation Xrotation Yrotation
                JOINT rRing2
                {
                  OFFSET -2.60934 -0.819778 -0.0198488
                  CHANNELS 3 Zrotation Xrotation Yrotation
                  End Site
                  {
                    OFFSET -2.33842 -0.294052 0.168128
                  }
                }
              }
              JOINT rPinky1
              {
                OFFSET -8.27202 -0.0477905 -0.4584
                CHANNELS 3 Zrotation Xrotation Yrotation
                JOINT rPinky2
                {
                  OFFSET -1.82734 -0.647385 -0.700984
                  CHANNELS 3 Zrotation Xrotation Yrotation
                  End Site
                  {
                    OFFSET -1.69225 -0.51767 -0.607171
                  }
                }
              }
            }
          }
        }
      }
      JOINT lCollar
      {
        OFFSET 2.68224 19.2634 -4.8768
        CHANNELS 3 Zrotation Xrotation Yrotation
        JOINT lShldr
        {
          OFFSET 8.77824 -1.95073 1.46304
          CHANNELS 3 Zrotation Xrotation Yrotation
          JOINT lForeArm
          {
            OFFSET 28.1742 -1.7115 0.48768
            CHANNELS 3 Zrotation Xrotation Yrotation
            JOINT lHand
            {
              OFFSET 22.5879 0.773209 7.07136
              CHANNELS 3 Zrotation Xrotation Yrotation
              JOINT lThumb1
              {
                OFFSET 1.2192 -0.487915 3.41376
                CHANNELS 3 Zrotation Xrotation Yrotation
                JOINT lThumb2
                {
                  OFFSET 3.37035 -0.52449 3.41376
                  CHANNELS 3 Zrotation Xrotation Yrotation
                  End Site
                  {
                    OFFSET 1.78271 -1.18214 1.43049
                  }
                }
              }
              JOINT lIndex1
              {
                OFFSET 7.75947 0.938293 5.60832
                CHANNELS 3 Zrotation Xrotation Yrotation
                JOINT lIndex2
                {
                  OFFSET 2.54057 -0.884171 1.56538
                  CHANNELS 3 Zrotation Xrotation Yrotation
                  End Site
                  {
                    OFFSET 1.62519 -0.234802 1.16502
                  }
                }
              }
              JOINT lMid1
              {
                OFFSET 8.24714 1.18213 3.41376
                CHANNELS 3 Zrotation Xrotation Yrotation
                JOINT lMid2
                {
                  OFFSET 3.10165 -0.590103 1.0647
                  CHANNELS 3 Zrotation Xrotation Yrotation
                  End Site
                  {
                    OFFSET 2.48547 -0.328903 0.83742
                  }
                }
              }
              JOINT lRing1
              {
                OFFSET 8.82822 0.546677 1.51678
                CHANNELS 3 Zrotation Xrotation Yrotation
                JOINT lRing2
                {
                  OFFSET 2.60934 -0.819778 -0.0198488
                  CHANNELS 3 Zrotation Xrotation Yrotation
                  End Site
                  {
                    OFFSET 2.33842 -0.294052 0.168128
                  }
                }
              }
              JOINT lPinky1
              {
                OFFSET 8.27202 -0.0477905 -0.4584
                CHANNELS 3 Zrotation Xrotation Yrotation
                JOINT lPinky2
                {
                  OFFSET 1.82734 -0.647385 -0.700984
                  CHANNELS 3 Zrotation Xrotation Yrotation
                  End Site
                  {
                    OFFSET 1.69225 -0.51767 -0.607171
                  }
                }
              }
            }
          }
        }
      }
    }
  }
  JOINT rButtock
  {
    OFFSET -8.77824 4.35084 1.2192
    CHANNELS 3 Zrotation Xrotation Yrotation
    JOINT rThigh
    {
      OFFSET 0 -1.70687 -2.19456
      CHANNELS 3 Zrotation Xrotation Yrotation
      JOINT rShin
      {
        OFFSET 0 -36.8199 0.73152
        CHANNELS 3 Zrotation Xrotation Yrotation
        JOINT rFoot
        {
          OFFSET 0.73152 -45.1104 -5.12064
          CHANNELS 3 Zrotation Xrotation Yrotation
          End Site
          {
            OFFSET -1.1221 -3.69964 12.103
          }
        }
      }
    }
  }
  JOINT lButtock
  {
    OFFSET 8.77824 4.35084 1.2192
    CHANNELS 3 Zrotation Xrotation Yrotation
    JOINT lThigh
    {
      OFFSET 0 -1.70687 -2.19456
      CHANNELS 3 Zrotation Xrotation Yrotation
      JOINT lShin
      {
        OFFSET 0 -36.8199 0.73152
        CHANNELS 3 Zrotation Xrotation Yrotation
        JOINT lFoot
        {
          OFFSET -0.73152 -45.1104 -5.12064
          CHANNELS 3 Zrotation Xrotation Yrotation
          End Site
          {
            OFFSET 1.1221 -3.69964 12.103
          }
        }
      }
    }
  }
}
MOTION
Frames:	8
Frame Time:	0.00833333
35.6197 60.462700000000005 11.3269 5.071677 -31.50497 2.79604 -6.500062 16.698947 13.381993 2.696391 -10.949319 -19.779152 7.549271 20.583858 76.82251 -40.18792 0.482889 -102.52184 0.06505 0.009591 16.774762 10.657025 -1.978566 -20.978081 -3.370063 30.282201 8.175491 61.56003 17.329575 21.864703 -5.739049 -27.462689 33.768536 -6.586386 19.929338 -4.465879 -3.94564 -4.258 -2.961365 -101.402323 -16.612273 123.850722 -158.431989 -7.578308 107.319005 -8.835521 2.444487 5.364716 -30.784245 48.447322 35.218157 -10.600511 53.312917 -2.853383 -10.930899 -10.149665 -7.267531 35.571473 43.922347 2.90087 0.96385 -39.708283 -4.038067 -2.945925 -10.972271 -0.058953 8.265345 -75.488807 25.032195 -113.354732 44.974626 65.851841 -178.89068 0.60879 -109.718969 -162.128285 -22.697049 -142.58486 1.476606 4.898393 -2.179757 55.582223 39.495724 -34.050027 64.048101 54.427941 -38.135852 164.215724 3.394421 -92.904023 142.499314 35.147198 -131.060865 168.053824 -8.299606 -121.462964 166.272746 -10.562392 176.802084 -177.490949 12.971981 156.037309 103.360726 -43.509175 85.113874 178.632374 35.931455 111.431241 175.840146 77.418897 2.671979 169.001214 13.943085 -43.626052 -52.493045 25.021174 6.104494 10.992571 27.848631 54.944455 0.035195 3.887062 0.481979 5.748905 -21.959321 26.69795 32.549231 63.079437 -167.251564 81.056661 2.045173 161.256146
36.674 60.6609 10.316699999999999 4.662261 -32.800015 3.404603 -6.791393 16.758998 18.697663 1.973466 -11.191492 -24.189849 3.001721 33.425426 161.390017 -16.224452 50.360905 -179.170257 -1.211353 -0.181675 17.058369 10.110928 -2.007105 -22.400885 -152.384187 -7.817602 163.600601 135.196733 -4.769637 166.79137 163.098798 9.605206 111.131569 174.539746 -7.179782 140.061178 -159.823633 10.788803 89.075625 -147.325026 8.190312 49.095178 -139.449294 11.7426 98.579733 19.930252 -19.367101 12.174317 170.723565 -67.792403 124.995626 2.00946 7.548061 17.862072 -153.552605 -11.787297 -170.932213 -125.474374 -67.392247 -121.627938 -129.864544 22.277636 -160.275783 2.800227 -9.08864 -7.921125 149.007784 34.346903 -151.542226 62.404213 7.354693 -18.419113 -3.222604 10.912398 68.532348 -159.031017 -28.538255 -140.565466 152.535331 5.336491 -87.07714 163.78216 -30.54327 -75.906554 8.279897 -16.25134 18.95686 2.420145 36.451815 -24.892917 165.698726 -24.557035 -146.062312 -168.895378 -15.417676 -135.735235 166.616261 -2.098046 179.547242 155.028655 -36.214661 144.983701 82.720833 -45.723808 63.576062 129.483591 3.6237 107.932563 0.393367 -1.232774 0.387934 -26.871798 -61.609778 152.305748 4.437346 -59.928223 -86.130609 5.606276 -12.475285 -86.997663 0.101063 4.078091 -0.080071 6.271679 -25.941065 177.698186 32.081941 -61.439254 125.500959 81.097169 -40.690338 159.455641
37.7568 60.8952 9.2771 4.18646 -34.141823 4.07964 -5.371938 16.889745 -17.639665 6.903812 -8.306386 13.142427 -12.807835 28.857714 -99.454578 46.34553 17.71914 69.085147 -2.88306 -0.440764 17.380705 9.358728 -1.979138 -23.832102 -140.155916 39.92863 148.368544 66.560327 -38.606656 96.145834 -179.381491 64.954585 108.544324 167.962665 -27.255487 137.865803 17.814737 -25.460413 -0.790398 -114.704756 9.225794 127.447792 -171.136265 -22.037691 110.25222 -11.118563 -2.846588 -1.333261 -168.976398 -51.821805 139.21279 21.152896 -9.456031 12.706811 -155.886892 20.495574 179.124763 -178.106799 -59.918729 -174.963612 10.186421 53.88313 37.882719 -84.47095 -48.733568 -77.951691 157.726364 -1.592004 -162.561236 -133.385556 0.430774 165.093493 178.570133 -5.410382 -108.952933 -159.560648 -26.782667 -141.217532 168.537882 -9.74425 -88.972841 -160.809004 -36.802359 -76.389886 159.374017 -0.247077 -131.980248 6.299241 -18.874188 24.350926 56.927909 59.6499 -49.767478 150.235273 -20.881283 -134.148434 24.85088 30.764453 -11.984597 -168.055469 -51.822515 -130.369375 46.09144 -32.703974 27.04656 121.877402 16.954961 119.470439 2.613323 -0.72299 1.51748 -26.967884 -59.919266 -37.765523 -36.530655 60.437525 -148.428656 97.337922 26.272464 -160.008712 -0.877346 4.233508 -1.318586 7.189136 -25.706226 35.686185 56.159043 52.200887 58.62181 -29.37885 31.488833 -75.777641
38.8639 61.1703 8.2147 3.634083 -35.501369 4.825013 -5.843946 12.37516 -169.821665 -3.431684 6.059048 165.954892 8.194813 23.687476 90.240296 -42.922875 9.025531 -109.960657 -5.103819 -0.799354 17.791269 8.371113 -1.880772 -25.283794 -150.680579 6.935664 160.367104 -41.185361 -21.353985 25.292476 177.687736 -10.379238 -142.709444 -13.291462 32.648404 -1.32158 -1.434232 -4.596721 -3.047221 5.504886 26.561591 1.63375 -49.501675 25.434444 31.362578 -153.660452 -33.579609 103.42086 -153.341944 -19.782731 143.164435 18.152156 10.886999 5.1679 -155.934863 2.892311 -175.078611 -52.421924 -69.076304 -48.355558 -3.593841 -53.329562 -15.129391 -105.621066 -57.454662 -103.080737 20.022652 -81.344343 38.271314 -63.089337 13.115397 47.732943 -167.473558 -56.035041 -96.101702 -162.099229 -20.432923 -143.3448 174.210356 -14.899671 -88.713415 131.97812 -7.543876 -67.56361 155.312029 14.957578 -127.071809 177.129473 15.242327 -123.287764 165.133849 -21.434594 -145.105359 132.28451 48.631484 -98.737519 166.252235 -10.892118 176.703849 103.097506 -53.377104 107.000925 163.273297 1.655864 133.771587 20.37141 57.37582 -7.255488 2.146907 -0.250704 0.526714 -26.357828 -60.993562 38.453407 60.564077 23.249781 27.92957 -131.56403 -24.698912 121.721174 118.997028 61.771608 38.52271 -133.645824 37.233626 110.321197 62.316511 -45.150155 -9.307234 -59.526092 38.911025 -35.947135
39.9911 61.4904 7.137599999999999 2.997158 -36.841332 5.641663 -7.700094 16.889739 29.808918 0.625807 -11.507096 -32.160853 -12.381639 30.811654 -108.403953 46.621315 24.637367 77.02854 -7.993773 -1.290771 18.316489 7.191753 -1.714711 -26.788995 -153.945982 -14.451598 164.893747 135.930066 2.031375 172.140522 158.416657 3.978816 109.086635 178.688658 1.160554 140.874497 -2.289886 -2.446846 -2.996772 -98.615351 8.007804 116.193519 -1.291707 -17.961544 5.800495 -28.229428 69.786493 31.462739 -128.396185 35.96173 128.934466 -12.446351 72.660213 15.95685 -120.844976 -61.285961 -128.389253 83.960598 69.043001 -71.923401 11.969797 -34.936475 2.004468 -6.564555 -8.874866 4.05932 10.301399 33.381339 -8.957814 104.75431 -2.659202 -121.128235 179.178837 -4.361459 145.540575 4.23011 36.667938 -0.888697 175.805064 -16.074523 -88.634683 -93.955267 -53.102914 -55.52535 159.390505 6.561849 -130.680299 151.300008 57.294081 -105.740207 -8.811913 -27.842398 2.913632 -1.149353 73.593258 6.528558 166.222842 -3.477024 178.939738 -174.507031 27.228155 158.560169 155.575318 -16.124253 126.463415 -16.231915 67.126177 29.274522 162.473872 74.84251 15.150971 175.583274 10.577996 -178.356062 20.611144 -66.452764 104.749092 139.756409 -27.255184 -97.157235 1.467148 4.295831 -0.586429 5.848853 -32.116165 -170.922568 18.616006 -67.438454 115.231124 -110.175992 79.21026 -159.256519
41.1345 61.856500000000004 6.0546999999999995 2.273207 -38.118615 6.526094 -4.34674 15.64445 -71.727291 8.802997 0.094634 69.668331 4.87388 33.05428 146.032817 -31.521631 45.264099 -154.258743 -11.74357 -1.970487 18.986495 5.869902 -1.485051 -28.372871 -153.672748 -8.929887 163.685546 -65.094765 43.811669 18.738703 -23.232967 -71.053404 -99.339506 165.533241 -36.563621 137.256811 -56.796738 37.670768 24.123081 -108.952599 -37.46046 93.517764 -163.697262 -12.976903 110.848086 -0.0133 -26.296778 5.174475 -132.917239 31.152275 134.015827 -146.491986 -59.740126 168.192882 -12.070752 33.388016 5.240877 -158.198366 -43.902658 153.950437 -117.723722 -27.71423 -144.547758 14.524812 2.194136 5.593309 -0.484076 -24.389004 6.209902 98.732862 -31.69033 -176.728061 175.054722 -4.799983 145.042023 2.420326 32.780134 -0.604121 -3.143931 -0.61436 -0.675861 159.010358 -64.77117 -139.235745 19.089213 8.972928 13.251483 94.51787 16.518778 -84.608524 0.811861 0.503648 -0.775582 -3.958969 67.350727 -1.081796 165.89338 -2.831497 178.9391 -169.840434 39.218485 156.817214 47.433416 -31.132097 22.216583 102.505077 8.173707 112.457775 -175.984805 75.0841 -0.845318 171.019638 11.005304 -94.378595 -62.36983 -15.162853 60.555099 -82.822896 -46.185448 35.121878 -3.246772 4.443328 -4.242632 13.563787 -31.441847 -4.405839 -44.582837 54.987281 -17.795214 28.660811 -22.871039 103.319802
42.2904 62.266999999999996 4.9753 1.465728 -39.28818 7.47037 -5.380002 13.052256 -141.48914 0.478902 6.704132 140.640644 -14.304501 26.812729 -80.745293 48.728176 6.030713 58.853193 -16.467028 -2.886156 19.752128 4.480232 -1.202616 -30.03753 -4.771562 29.233926 7.976648 62.969265 20.129048 21.215831 23.579002 -42.040461 54.733424 -17.142121 37.3068 1.777336 -167.206298 -2.448358 92.948835 46.964111 -61.029293 59.245492 -13.923764 -2.232149 7.950035 -154.244895 -69.000838 116.785761 -54.160124 64.149932 58.986561 -22.768594 76.755655 6.782661 -12.7103 27.510394 2.947267 179.510623 -68.448089 138.440097 -117.931452 39.537269 -170.551774 27.476397 28.54646 -4.582389 158.580788 -15.080256 -165.53141 82.821911 -43.360052 48.226844 -134.26892 -0.25137 169.536909 149.642477 75.653609 -130.51461 4.563338 6.172702 -2.117651 21.690126 6.32184 4.722548 18.357052 4.469044 14.630271 153.3601 -28.62769 -89.298583 166.503565 -20.232611 -143.545442 121.532649 49.368645 -89.786753 165.522656 1.810844 -179.894659 -136.750005 67.199128 134.006557 -10.544123 77.54308 1.675314 -161.020458 -78.449854 -146.112609 23.957847 3.796534 15.356824 -62.337735 -51.89518 71.78664 76.505427 -16.002311 121.558035 146.320022 10.002213 -131.325274 -122.651089 64.879073 -34.85216 152.912023 35.798138 -147.895299 -39.638936 -67.973145 -134.298122 64.170863 -65.833042 -23.485551
43.4553 62.7176 3.9079999999999995 0.586048 -40.310625 8.461098 -8.989041 16.477075 48.585676 -1.68923 -11.232885 -47.586581 -14.470772 27.882706 -85.893095 49.950126 10.118254 62.931434 -22.139378 -4.057827 20.527242 3.137958 -0.89385 -31.792364 -6.110997 31.624606 9.187227 46.937252 43.153123 33.726826 -10.388462 -57.240931 29.385191 -6.726845 10.771506 -2.76126 -1.304329 1.259779 -3.781468 -116.275937 -38.337993 140.751798 -150.880131 3.124081 107.646331 -156.244971 20.233633 82.85656 36.199653 -77.84355 -3.665989 -1.142195 5.915454 23.26127 -139.421264 -51.547906 -144.78787 54.75082 62.420104 -47.371429 -105.299841 59.14537 173.033908 -150.793498 28.868775 -130.90062 19.957132 -81.144622 38.908914 44.237081 -41.411224 98.24593 153.798836 -5.13512 146.797172 -5.528203 9.22208 -1.839132 168.758017 -7.941189 -89.107665 -92.949697 -53.65263 -47.995726 172.764947 -47.455468 -143.218689 19.783286 83.598468 0.148432 128.431496 47.069811 -115.483282 -158.246079 -50.187511 -105.269539 165.074022 6.92268 -178.655928 34.951797 -44.822781 46.976969 9.913228 53.461257 -8.064003 107.291609 13.049956 -177.529833 159.168229 73.337901 18.636347 177.871244 12.684509 67.85988 70.18113 28.624589 -153.711168 149.580781 -21.815311 -67.010499 7.236413 3.892956 2.670137 -0.595978 -39.236748 -178.878463 10.269349 -67.762886 -148.905835 113.257837 -2.526475 -11.957009
